<?xml version="1.0" encoding="UTF-8"?>
<svg width="80px" height="119px" viewBox="0 0 80 119" version="1.1" xmlns="http://www.w3.org/2000/svg" xmlns:xlink="http://www.w3.org/1999/xlink">
    <title>noun_automobile seat_2378404</title>
    <g id="Vision-Jet---Content" stroke="none" stroke-width="1" fill="none" fill-rule="evenodd">
        <g id="Cirrus---PDP---Vision-Jet" transform="translate(-416.000000, -3766.000000)" fill="#FFFFFF" fill-rule="nonzero">
            <g id="60/40" transform="translate(189.000000, 3690.000000)">
                <g id="noun_automobile-seat_2378404" transform="translate(227.000000, 76.000000)">
                    <path d="M64.8819774,24.8818182 C66.2721973,24.8905911 69.9910875,23.8637028 70.8972688,22.5763713 C71.5070304,21.7101009 71.4451852,19.7458004 71.0506112,17.470758 C70.4515213,14.016677 69.0476315,9.9594225 67.9717953,7.65376674 C67.4814299,6.60280264 66.0786581,3.79970904 64.8259255,4.41438975 C64.0599503,4.79021827 63.3686517,6.04744296 62.8168731,7.76502684 C62.2320884,9.5853309 61.8366505,11.8824468 61.6891267,14.2129262 C61.3603615,19.4059408 62.2022076,24.7287911 64.8819774,24.8818182 Z M37.8378378,40.4420085 L61.4502283,47.6 C62.261123,45.1230257 63.1489397,42.7433308 64.1021402,40.5480789 C66.3951475,35.2672005 69.0837434,31.0225554 72.0195609,28.9892028 C72.7395853,28.4905228 73.4740692,28.1216609 74.2210163,27.8985615 C75.5415682,27.5041695 76.6687927,27.8605072 74.2807283,26.7569563 C73.1338838,26.227038 71.8642563,25.8700501 70.6075545,25.5169639 C70.0475571,25.3596406 69.4899453,25.2029436 68.9438475,25.0331443 C66.9395657,26.0990985 65.4521708,26.2583244 63.3457482,26.2221728 C58.1266117,26.1325285 49.4818882,25.273609 45.5071606,21.6363636 C40.8837318,25.3495008 38.9776716,32.4862975 37.8378378,40.4420085 L37.8378378,40.4420085 Z M60.5405405,48.2223024 L37.0788392,41.1090909 C36.7223897,43.7902897 36.4400989,46.5478658 36.1601012,49.2857199 C35.2825896,57.8660097 34.4243007,66.2534973 31.3513514,71.696038 C33.4145233,72.3465493 35.4576675,73.2024637 37.4626834,74.036749 C40.7146869,75.3901544 44.4975591,77.056625 47.9582802,78.5812277 C51.342208,80.072011 54.4144012,81.4254647 56.3876069,82.2181818 C53.8474777,74.8268108 57.9450363,56.4832749 60.5405405,48.2223024 Z M9.33867918,101.425933 L8.34177374,102.21247 C7.00668251,103.265932 5.12722877,102.680605 3.80028837,101.921553 C1.99124602,100.886681 1.40389524,100.086415 1.28953811,98.2719704 C1.2467217,97.0633503 1.21564053,96.186104 1.93959136,95.5743182 C2.03757317,95.4915236 2.29375965,95.3416188 2.55090361,95.2073494 C2.10361454,94.6081941 1.70692444,93.9981674 1.36851769,93.3779776 C0.464855787,91.7218905 0.0233606772,89.9286757 0.000896793225,88.1083187 C-0.0321729901,85.4346084 0.85081723,82.6526225 2.40784672,80.4683016 C7.47881689,73.3547349 20.0988796,70.6309178 28.0571831,71.5442967 C25.8358119,68.8869058 25.1541373,63.6691859 25.6055018,57.5107985 C26.1914778,49.5155391 28.4696593,40.6355088 31.6652757,33.2811074 C35.0403576,25.5136858 39.4795648,19.6987651 44.1157422,19.5188109 C42.0509308,16.2295769 42.4391754,11.4289082 43.4015135,7.85496251 C44.5385297,3.63180371 46.7139421,-0.408078331 51.8870431,0.0331100229 L61.2383529,0.83076215 C65.894981,1.22795138 67.0363182,3.13415673 68.5644024,6.60820659 C69.6391827,9.05178273 71.0135305,13.2294766 71.6007094,16.7778192 C72.0733348,19.6339758 72.0219747,22.1425367 70.9089936,23.2342818 C70.4332994,23.7008289 70.1010058,23.539906 71.0199382,23.7995521 C75.5372411,25.0760887 80.2053344,26.3953052 79.99302,34.2347964 C79.8172862,40.723727 78.6756544,51.3908889 77.0481153,60.8534128 C75.8478565,67.8319772 74.3769017,74.1784054 72.8225974,77.7654946 C77.6937494,77.4901398 77.106325,83.3677732 75.9926565,86.4654241 C75.5659163,87.6524233 74.9074422,90.5531653 74.2126576,92.8655502 C73.275975,95.9832585 73.2157276,95.7216334 70.8258159,97.6073173 L44.4371108,118.428334 C43.101995,119.481748 41.2225904,118.896494 39.8956254,118.137417 C37.967905,117.034654 37.4559003,116.495817 37.3848752,114.487737 C37.3679597,114.010123 37.3527874,113.582103 37.3796459,113.204947 C37.4354005,112.421024 37.6870696,112.593454 36.7808054,112.52522 C35.1140097,112.399697 33.5351792,112.132843 32.1819696,111.767658 C27.6477512,110.544062 19.4097171,107.553734 12.4276474,103.403671 C11.3635712,102.771193 10.3282931,102.111255 9.33867918,101.425933 L9.33867918,101.425933 Z M2.93972221,96.2818182 C2.79419464,96.3600804 2.48346928,96.5138799 2.38189698,96.606577 C2.12929127,96.8370676 2.15003523,97.4688362 2.1785696,98.3391966 C2.228579,99.8628796 2.62367379,100.174505 3.94381677,100.990023 C4.70855617,101.462419 6.08967452,102.06819 6.89380004,101.383052 L7.56756757,100.809023 C5.78836163,99.3942882 4.20293353,97.8799092 2.93972221,96.2818182 L2.93972221,96.2818182 Z M39.3603129,112.723889 C38.8774419,112.931771 38.9004753,113.589549 38.9349033,114.570307 C38.9898759,116.136656 39.2581756,116.315678 40.8202231,117.218118 C41.6370048,117.68996 43.1120428,118.29502 43.9708652,117.610686 L70.4681147,96.4973669 C72.5108617,94.8696684 72.3542397,95.2965647 73.1237834,92.6467427 C73.8006325,90.3160018 74.5934292,87.0543032 74.9416136,86.0762669 C75.8161738,83.6195903 76.7112542,78.3581978 72.5143021,79.031767 C70.1330574,79.5836427 68.7540079,82.6609495 67.5663013,85.3116787 C66.9581864,86.6688951 66.3966993,87.9220478 65.7341973,88.7746634 C63.4501124,91.7143384 59.8360947,94.1146186 57.1128143,96.8138978 C52.8306094,101.058341 56.5675775,104.710964 49.4535377,109.995896 C47.4603466,111.476621 44.7812541,112.274066 41.9980235,112.577626 C41.1240732,112.67296 40.2386307,112.71972 39.3603129,112.723889 L39.3603129,112.723889 Z M29.7179285,73.044882 C21.9712046,71.1921877 8.17113612,73.9002311 3.20222858,81.3366455 C1.5410399,83.8227067 2.029237,86.2329969 3.54473448,88.7090909 C3.61587757,88.3501954 3.72826723,87.9890436 3.87898142,87.6266521 C6.78664721,80.6360864 22.1212426,74.6970163 29.6819223,73.7599953 C32.0263599,73.4697548 31.7746544,73.5362775 29.7179285,73.044882 Z M1.19403567,86.6893106 C1.11286762,87.2484957 1.07491188,87.808213 1.08189593,88.3643744 C1.16276783,94.8126253 7.89843202,99.5156632 12.9757411,102.488316 C19.8767274,106.528639 28.0325732,109.443503 32.5245296,110.637513 C35.0599883,111.311501 38.4239088,111.630268 41.6286768,111.289344 C44.2458217,111.010949 46.7443611,110.294533 48.5669032,108.97394 C55.3028883,104.093134 51.5467748,100.561199 56.1836195,96.0785022 C58.8764045,93.4752205 62.5571,91.0781772 64.7974761,88.265827 C65.1868804,87.7770329 65.5616749,87.0758321 65.9459459,86.275963 C63.8552704,87.1012793 61.9271284,86.4890228 59.326987,85.4636364 C60.4421654,88.9115374 55.2416112,93.2267475 52.7860126,95.0497051 C46.1779123,99.9554255 36.0758104,104.321699 29.9847522,103.529692 C23.2777646,102.657738 15.1600473,99.5422473 9.55528177,95.9833897 C6.22472676,93.868636 2.29522119,90.6559522 1.19403567,86.6893106 L1.19403567,86.6893106 Z M66.4449904,83.4846597 C67.5911149,81.0657895 68.9547299,78.4987412 71.264908,77.5455167 C72.950843,74.3544775 74.5839477,67.6741772 75.9088843,60.225972 C77.5709978,50.88239 78.7361845,40.3752122 78.9146692,34.0029946 C78.9576032,32.4706493 78.7231154,27.4049724 75.9588439,29.8784282 C70.2687378,34.9703682 59.9780428,78.8624997 63.3752703,83.8388239 C64.1458165,84.9674103 65.5980694,84.0795771 66.4449904,83.4846597 L66.4449904,83.4846597 Z M29.4596639,101.690909 C30.7643359,98.2192499 34.8723895,94.3479303 39.6669364,91.0113069 C44.9092967,87.3631016 51.008119,84.3237371 55.1351351,83.1537425 C53.2097561,82.350312 50.6444349,81.2299011 47.8764997,80.0209982 C44.3521451,78.499711 40.3548179,76.9621553 37.2061199,75.4862934 C29.5588392,71.9021408 7.75601341,80.5005664 4.65847706,87.6163698 C4.32024987,88.3933671 4.22704839,89.1467032 4.43293443,89.8543222 C5.85076196,91.465755 7.74912245,92.9791146 9.91119852,94.3531585 C15.3291295,97.7963904 23.0087828,100.748357 29.4596639,101.690909 Z M57.284743,84.3818182 C53.5118079,85.0410129 46.66999,88.4381413 40.8666961,92.6517359 C36.4418709,95.8644849 32.6494881,99.5265666 31.3513514,102.757221 C37.1335117,103.061186 46.1765158,98.8504669 52.2320928,94.1559803 C54.1362612,92.6798192 58.8493822,88.6514794 58.3401494,85.8614302 C58.2380732,85.3022401 57.8999366,84.8013421 57.284743,84.3818182 L57.284743,84.3818182 Z M30.8782221,71.4 C33.9790308,66.1579104 34.849338,57.7325227 35.739537,49.1103565 C36.8995256,37.8750492 38.0941699,26.3136396 44.3243243,20.5545455 C40.3122606,20.9581062 36.3197171,26.3507177 33.1751119,33.4794661 C30.0073451,40.6607599 27.7432284,49.3609916 27.1623299,57.1680232 C26.6294144,64.3301103 27.6308387,70.0753882 30.8782221,71.4 L30.8782221,71.4 Z M74.2793263,28.4779695 C73.689733,28.6660626 73.1063704,28.9697766 72.5311078,29.3766416 C69.8428663,31.2780326 67.3307143,35.3653512 65.1532236,40.4865762 C64.0963028,42.9723195 63.1222266,45.6945351 62.2477219,48.5255192 C60.1377865,55.3556836 54.7997182,78.8411128 58.6651812,83.025311 C59.8800506,83.5263678 61.2226257,84.1234808 62.5084054,84.3818182 C59.1199515,78.4612947 68.7523715,34.6486945 74.7184718,29.0418612 C75.5472526,28.2630476 76.5627871,27.7495207 74.2793263,28.4779695 L74.2793263,28.4779695 Z M62.7645957,2.14009684 C62.2532214,2.03004807 61.6591336,1.94625605 60.9614528,1.88941425 L51.3795237,1.10864669 C46.7900851,0.73471522 45.001558,4.33406566 44.0015002,7.88219391 C42.9646893,11.5604342 42.482798,17.2074282 45.997138,19.875525 C49.876695,22.820872 57.1071274,23.6229463 61.9529323,23.8 C60.2250064,21.7413802 59.6558232,17.4280758 59.9231577,13.1999982 C60.0745726,10.8048472 60.4849952,8.42999861 61.0937239,6.53286495 C61.5994884,4.956671 62.259284,3.68747533 63.0464201,2.96041692 C63.7134858,2.34429207 64.4207008,2.49642816 62.7645957,2.14009684 Z" id="Shape"></path>
                </g>
            </g>
        </g>
    </g>
</svg>