<?xml version="1.0" encoding="UTF-8"?>
<svg width="82px" height="81px" viewBox="0 0 82 81" version="1.1" xmlns="http://www.w3.org/2000/svg" xmlns:xlink="http://www.w3.org/1999/xlink">
    <title>Shape</title>
    <g id="Vision-Jet---Content" stroke="none" stroke-width="1" fill="none" fill-rule="evenodd">
        <g id="Cirrus---PDP---Vision-Jet" transform="translate(-1259.000000, -3360.000000)" fill="#FFFFFF" fill-rule="nonzero">
            <g id="USB-Ports" transform="translate(1035.000000, 3307.000000)">
                <path d="M245.114612,80.3285724 L270.936989,54.0498989 C272.223747,52.7658964 273.617296,52.6400843 275.068136,53.7804358 L302.067127,74.0198407 C304.278063,75.6773393 306.5126,76.4582742 305.896028,79.4685824 C305.819538,79.9110483 305.766106,80.2292204 305.716731,80.5233181 C305.38719,82.4859756 305.316225,83.7221185 303.973463,85.2275076 L281.930014,109.941184 C281.525831,110.394314 281.465896,110.275695 281.912119,110.632618 C282.007699,110.703015 282.099023,110.781203 282.186036,110.866367 C282.996776,111.659989 283.338452,113.021294 283.347201,114.349125 C283.35671,115.793262 283.112352,117.05742 282.125612,118.11333 L269.202397,131.943025 C268.541504,132.650254 267.838697,133.706725 266.891461,133.944035 C266.183765,134.121321 265.400013,133.890554 264.373263,133.062808 L225.694687,101.881097 C224.206445,100.558868 223.982808,99.7637089 224.000975,98.4647955 L224.037019,95.8873922 C224.024123,95.0307097 224.051509,93.7815175 224.355349,93.0516954 C224.570237,92.5355243 224.910899,92.1097586 225.464838,91.5234791 L237.47342,79.2644925 C239.080988,77.4971953 240.498301,77.5059069 242.307119,78.952827 L244.129702,80.4106999 C244.74372,80.9018749 244.555548,80.8975372 245.114612,80.3285724 L245.114612,80.3285724 Z M258.444478,110.978947 C258.074063,110.978947 258.074063,110.126316 258.444478,110.126316 L261.305522,110.126316 C261.675937,110.126316 261.675937,110.978947 261.305522,110.978947 L258.444478,110.978947 Z M254.154469,107.568421 C253.809621,107.568421 253.809621,106.715789 254.154469,106.715789 L263.033031,106.715789 C263.377879,106.715789 263.377879,107.568421 263.033031,107.568421 L254.154469,107.568421 Z M244.758636,101.6 C244.413788,101.6 244.413788,100.747368 244.758636,100.747368 L253.637197,100.747368 C253.982045,100.747368 253.982045,101.6 253.637197,101.6 L244.758636,101.6 L244.758636,101.6 Z M238.783964,98.1894737 C238.433123,98.1894737 238.433123,97.3368421 238.783964,97.3368421 L257.903536,97.3368421 C258.254377,97.3368421 258.254377,98.1894737 257.903536,98.1894737 L238.783964,98.1894737 Z M283.236272,80.6883477 L289.317457,85.5925312 C290.678242,86.6898999 291.161775,87.3134243 289.867237,88.7443148 L286.579868,92.3779819 C285.645044,93.4117246 284.850697,93.207553 283.912672,92.3286146 L277.761221,87.23385 C276.439552,86.0784992 276.925158,85.505289 277.954888,84.4029631 L280.854795,81.1494557 C281.585495,80.3296504 282.294337,79.928678 283.236272,80.6883477 L283.236272,80.6883477 Z M281.472119,82.4743284 L278.48364,85.5543588 C277.914273,86.1423473 277.410471,86.3806566 278.283416,86.9946982 L284.516452,91.7369199 C285.118537,92.2076346 285.338519,92.4836651 285.957149,91.855256 L289.302422,88.4584959 C290.082004,87.6669413 289.838793,87.4833854 288.940075,86.8175336 L282.744288,82.2275554 C282.134069,81.7755271 281.904469,82.0287612 281.472119,82.4743284 L281.472119,82.4743284 Z M263.114386,68.1975077 C263.852997,67.4487589 264.529125,67.2275617 265.421616,67.88262 L271.611966,72.4264188 C272.656875,73.2270553 273.158402,73.8868386 272.102863,75.0886486 L268.825481,78.622444 C267.715218,79.819423 267.12233,79.5699635 265.923919,78.6437597 L259.714925,73.8457058 C258.62679,72.8260935 258.912658,72.2581672 259.918041,71.3534202 L263.114386,68.1975077 L263.114386,68.1975077 Z M263.711648,68.7740701 C262.607905,69.8373945 261.520896,70.918436 260.417153,71.9817604 C259.966264,72.3859538 259.575203,72.6040917 260.199008,73.186431 L266.512637,77.9980018 C267.346063,78.6331199 267.421687,78.878055 268.196537,78.0541679 L271.534274,74.5050121 C272.162828,73.7798014 271.686184,73.5138683 271.152933,73.1110582 L264.887517,68.5756534 C264.358242,68.1924757 264.172018,68.313888 263.711648,68.7740701 Z M267.5625,131.693856 L267.539724,129.334085 C267.527123,128.019655 267.066252,127.556332 266.15445,126.827556 L228.659744,96.8594378 C228.113198,96.4226025 227.299234,95.7232718 226.559946,95.2562568 C225.692411,94.7082548 225.001886,94.3745754 224.904613,95.7352075 C224.883491,96.6966931 224.846964,97.6631251 224.855413,98.6248795 C224.865446,99.7538949 224.994566,100.417687 226.257184,101.524122 L265.106136,132.414872 C265.62839,132.830147 266.04119,133.051459 266.384995,133.120672 C267.305992,133.306123 267.569987,132.492669 267.5625,131.693856 L267.5625,131.693856 Z M267.735196,128.119731 C267.793946,128.403831 267.827744,128.734342 267.831456,129.127296 L267.848801,130.958594 C267.85508,131.622659 267.79886,131.548405 268.25228,131.064404 L281.086787,117.364687 C281.932383,116.4621 282.091416,115.470132 282.083026,114.199643 C282.07944,113.656713 282.015267,113.11277 281.878602,112.626903 C281.480383,111.211384 281.54503,111.998271 281.267151,112.596035 C280.947083,113.284592 280.443832,113.800983 279.932426,114.345687 L267.96115,127.096931 C267.36648,127.730327 267.568264,127.312302 267.735196,128.119731 L267.735196,128.119731 Z M268.305275,125.842998 L279.910532,113.452997 C280.460718,112.86562 281.275711,112.061002 281.227088,111.236236 C281.205595,110.871994 281.004545,110.514635 280.62073,110.146457 C267.82733,99.9151474 255.031769,89.6821303 242.237667,79.4502993 C240.817721,78.3146534 239.9331,78.200165 238.624146,79.6384054 L226.669628,91.8396167 C226.401939,92.1229441 226.193664,92.3588944 226.033725,92.5804843 C225.462875,93.371335 225.718061,93.1313048 226.223299,93.2065041 C227.322843,93.3701308 228.769235,94.6581883 229.729233,95.4359726 L266.90457,125.554979 C267.053773,125.675866 267.197733,125.795639 267.337279,125.920354 C267.936431,126.455951 267.696665,126.49276 268.305275,125.842998 L268.305275,125.842998 Z M280.265388,108.994463 C280.74905,109.352786 280.574433,109.401901 281.000608,108.930758 L303.321133,84.2556662 C304.501508,82.950741 304.560714,81.737047 304.850158,80.0371702 C304.909857,79.6866378 304.97484,79.3049814 305.031156,78.9837921 C305.157356,78.263999 305.274158,77.7062668 304.831745,77.0754921 C304.594997,76.7378231 304.672103,76.8658095 304.634126,77.1521328 C304.616902,77.2817743 304.587427,77.4132869 304.545227,77.5473003 C304.350716,78.1649777 303.954801,78.7002034 303.517198,79.1741525 L278.066216,106.739013 C277.724716,107.108868 277.716817,106.997235 278.110538,107.310311 C278.823049,107.876876 279.537353,108.4551 280.265388,108.994463 Z M277.554976,106.306443 L302.562131,78.8043291 C304.426639,76.7537588 302.991034,75.9240227 301.249513,74.6167985 L274.377525,54.4470455 C273.299496,53.5858146 272.404123,53.6707262 271.439066,54.6349327 L245.703552,80.8548274 C245.206968,81.3607455 245.236451,81.2050923 245.813024,81.6668781 L276.688005,106.394744 C277.239533,106.836483 277.072952,106.836555 277.554976,106.306443 L277.554976,106.306443 Z" id="Shape"></path>
            </g>
        </g>
    </g>
</svg>