<?xml version="1.0" encoding="utf-8"?>
<!-- Generator: Adobe Illustrator 23.0.6, SVG Export Plug-In . SVG Version: 6.00 Build 0)  -->
<svg version="1.1" id="Layer_1" xmlns="http://www.w3.org/2000/svg" xmlns:xlink="http://www.w3.org/1999/xlink" x="0px" y="0px"
	 viewBox="0 0 1768.6 374.9" style="enable-background:new 0 0 1768.6 374.9;" xml:space="preserve">
<style type="text/css">
	.st0{fill-rule:evenodd;clip-rule:evenodd;fill:#FFFFFF;}
	.st1{fill:#FFFFFF;}
</style>
<g>
	<path class="st0" d="M612.8,152.8l-37.7-19.1c-1.9,3.7-4.2,7.2-6.7,10.5c-3.5,4.7-7.9,8.8-12.9,11.9c-5.6,3.5-12.8,5.4-21.6,5.6
		c-4.4,0-8.8-0.6-13-1.8c-2.8-0.8-5.5-2-7.9-3.5c-5.5-2.8-10.5-7.6-15.3-14.4s-8-16.6-9.8-29.5c-0.4-3-0.6-5.6-0.7-7.8
		c-0.1-2.2-0.1-3.9-0.1-5.1c0.3-13,2.3-23.6,6.1-31.7s7.7-14,11.9-17.5c5.6-5,11-8.1,16.4-9.5s9.5-2,12.4-1.8
		c9.7,0.5,17.4,2.9,23.2,7.2s9.5,8.1,11.3,11.1c0.7,1.1,1.7,2.4,2.6,4c1.3,2.1,2.5,4.3,3.6,6.5l37.4-18.5c-0.9-1.8-2.5-4.4-4.7-8
		c-2.5-4.1-5.3-8-8.5-11.7c-8.3-9.4-18.6-16.9-30.2-21.9c-11.6-5-24.1-7.6-36.8-7.6c-13,0.1-24,2.2-33.2,6.1
		c-8.2,3.2-15.9,7.8-22.6,13.4c-4.8,3.9-9.2,8.4-13.1,13.2c-6.6,8-11.9,17.1-15.6,26.7c-3.1,7.8-5.2,15.9-6.4,24.2
		c-0.8,5.6-1.1,11.2-1.1,16.9c0,5.9,0.4,11.8,1.1,17.7c1.2,8.8,3.3,17.5,6.3,25.9c3.6,10,8.9,19.2,15.7,27.4
		c7.2,8.7,16.9,16.1,29.3,21.9c7.3,3.2,15.1,5.5,23,6.8c5.2,0.8,10.4,1.3,15.7,1.4c12.4-0.2,23.3-2.2,32.6-6s17.1-8,23.2-12.9
		c4.9-3.7,9.5-7.8,13.6-12.4c1.3-1.6,3-3.8,5-6.7S610,157.1,612.8,152.8L612.8,152.8z"/>
	<path class="st0" d="M748.8,195.8V5.9h-47.3v189.9H748.8z"/>
	<path class="st0" d="M959.8,66.4c0.3,2.8-0.4,6.8-2.2,12.1s-6.3,9.4-13.6,12.3c-2.5,0.9-5,1.4-7.6,1.7c-1.7,0.2-3.4,0.2-5.1,0.2
		H892V41.1h40.4c3.6-0.1,7.3,0.3,10.8,1.1c4.4,0.9,8.4,3.3,11.4,6.7C957.9,52.4,959.7,58.3,959.8,66.4L959.8,66.4z M1012,195.8
		L968.2,120c3.8-1.4,6.9-2.7,9.2-3.8s4.4-2.1,6-3c1.6-1,3.1-2,4.6-3.2c1.5-1.2,2.9-2.4,4.3-3.8c3.4-3,6.7-7.6,9.8-13.7
		s4.8-14.5,5-25c0-6.7-0.9-13.4-2.7-19.8c-1.2-4.1-2.8-8.2-4.8-12c-5.2-8.9-11.4-15.5-18.6-19.6c-6.3-3.9-13.3-6.6-20.5-8.1
		c-4.8-1-9.6-1.7-14.5-1.9c-5.3-0.2-10.7-0.3-16.1-0.3h-85.5v189.9h47.9V128h29.6l37.9,67.8L1012,195.8z"/>
	<path class="st0" d="M1215.8,66.4c0.3,2.8-0.4,6.8-2.2,12.1s-6.3,9.4-13.7,12.3c-2.5,0.9-5,1.4-7.6,1.7c-1.7,0.2-3.3,0.2-5,0.2
		H1148V41.1h40.4c3.6-0.1,7.3,0.3,10.8,1.1c4.4,0.9,8.4,3.3,11.4,6.7C1213.9,52.4,1215.7,58.3,1215.8,66.4L1215.8,66.4z
		 M1267.9,195.8l-43.8-75.8c3.9-1.4,7-2.7,9.3-3.8s4.4-2.1,6-3c1.6-1,3.1-2,4.5-3.2c1.5-1.2,3-2.4,4.4-3.8c3.5-3,6.7-7.6,9.8-13.7
		s4.7-14.5,4.9-25c-0.1-7.9-1-14.4-2.7-19.8c-1.2-4.2-2.7-8.2-4.8-12c-5.2-8.9-11.3-15.5-18.6-19.6c-6.3-3.9-13.3-6.6-20.5-8.1
		c-4.7-1-9.6-1.7-14.4-1.9c-5.4-0.2-10.8-0.3-16.2-0.3h-85.6v189.9h47.9V128h29.6l38,67.8L1267.9,195.8z"/>
	<path class="st0" d="M1517.2,111.8V5.9h-47.6V124c0.2,5.4-0.3,10.7-1.3,16c-1,5.3-3.8,10.2-7.9,13.8c-3.1,2.8-6.9,4.8-10.9,5.8
		c-4.1,0.9-8.3,1.3-12.5,1.2c-3.5,0-6.9-0.3-10.3-0.9c-5.4-0.9-10.6-3.1-15-6.3c-3.6-2.6-6.1-6.3-7.2-10.5
		c-1.2-4.3-1.8-10.6-1.7-18.8V5.9h-47.9v106c-0.4,11.6,0.5,23.3,2.6,34.7c2.1,11.2,7.5,21.4,16.2,30.7c6.8,6.7,14.8,11.9,23.7,15.5
		c7.4,3,15.1,5.1,23,6.2c17.3,2.5,35,0.5,51.3-5.9c8.5-3.3,16.3-8.1,23.1-14.2c7.3-6.4,13-15.2,17.2-26.1c2.2-6.5,3.6-13.3,4.3-20.2
		C1516.9,125.7,1517.1,118.8,1517.2,111.8L1517.2,111.8z"/>
	<path class="st0" d="M1768.5,134.2c0-4.2-0.4-8.4-1.3-12.6c-0.6-2.7-1.4-5.3-2.4-7.9c-3.4-7.6-7.8-13.4-13.4-17.6
		c-4.8-3.7-10.2-6.6-16-8.6c-3.7-1.3-7.6-2.3-11.5-3c-5.2-1.2-10.5-2.4-15.8-3.5s-10.5-2-15.9-2.8c-8.8-1.1-16.1-2.2-21.6-3.1
		s-10-3-13.1-6.3c-1-1.1-1.9-2.3-2.5-3.6c-1-2-1.5-4.2-1.6-6.4c-0.1-4.7,2.3-9.2,6.9-13.4s11.8-6.5,21.4-6.7c3.7,0,7.4,0.4,11,1.1
		c3.2,0.7,5.4,1.2,6.7,1.5c6.2,1.9,12,4.7,17.4,8.3c5.2,3.7,10.1,7.9,14.6,12.5l34.9-25c-5.2-4.6-9.2-8-12.1-10.4s-5.8-4.5-8.8-6.6
		c-13.2-8.4-25.5-13.8-36.7-16s-19.9-3.2-26-2.8c-15.6,0.3-28.2,2.4-37.8,6.6s-16.8,8.6-21.5,13.3c-4.3,4-8,8.7-10.8,13.8
		c-2.7,5.2-4.6,10.7-5.6,16.5c-0.3,2.8-0.6,5.5-0.8,8s-0.3,4.3-0.3,5.2c0.1,3.5,0.4,6.9,1,10.3c0.4,2.1,0.9,4.2,1.5,6.3
		c1.1,3.1,2.5,6.1,4.3,8.9c1.1,1.8,2.4,3.5,3.8,5.1c4.5,5.4,10.1,9.8,16.3,12.9c6.2,3.1,12.7,5.4,19.5,7c4.4,1.1,9,2.1,13.5,2.8
		s9,1.5,13.5,2c5.8,0.7,12,1.5,18.4,2.5c5.8,0.8,11.4,2.6,16.6,5.4c4.6,2.7,7,6.9,7.2,12.6c0,4.4-1.8,8.6-4.9,11.6
		c-2.7,2.7-5.9,4.9-9.5,6.4c-1.9,0.9-3.8,1.6-5.8,2.1c-2.9,0.8-5.9,1.4-8.9,1.6c-2.7,0.2-4.7,0.3-5.9,0.2
		c-8.3-0.1-16.6-1.4-24.5-4.1c-8-2.6-15.4-6.5-22-11.8c-1.8-1.5-3.6-3.1-5.3-4.8c-1.7-1.7-2.7-2.8-3.1-3.3l-36,22.6
		c3.6,4.4,6.4,7.5,8.4,9.7c2.1,2.2,4.3,4.3,6.6,6.2c6.1,5.4,14.9,10.5,26.4,15.3s26.5,7.3,45.2,7.6c6.4,0,12.8-0.5,19.1-1.3
		c5.4-0.6,10.7-1.6,15.9-2.9c8.1-2.1,15.9-5.4,23-9.9c8.1-4.9,15-12.3,20.7-22.1c3-5.5,5.2-11.5,6.4-17.6c0.8-3.9,1.2-8,1.2-12
		L1768.5,134.2z"/>
</g>
<path class="st1" d="M523.8,372.1L512,338.7h-41.5l-12.2,33.3h-15.4l41.5-109h15.1l39.7,109L523.8,372.1z M491.7,281l-16.7,45.5
	h32.6L491.7,281z"/>
<path class="st1" d="M637.4,372.1v-109h14.7v109H637.4z"/>
<path class="st1" d="M832.6,372.1l-29.8-46.3h-28.1v46.3h-14.2v-109h40.6c3.4,0,7-0.2,10.3,0c15.1,0.6,22.2,5.4,26.9,11
	c2.9,3.6,6.6,10,6.6,20.8c0,4.5-0.6,19.3-14.5,26.4c-2.6,1.4-5.2,2.5-11.1,3.6l30.6,47.2L832.6,372.1z M822,278.2
	c-5.7-3.4-12.5-3.1-19-3.1h-28.2v38.4h29c8.2,0,17.9,0.2,23.5-7.4c2.3-3.3,3.5-7.2,3.4-11.3C830.6,291.8,830.3,283.3,822,278.2
	L822,278.2z"/>
<path class="st1" d="M1049.4,341.2c-2.8,7.1-12.2,24.8-33.6,31.2c-5.7,1.7-11.5,2.5-17.5,2.5c-19.3,0-30.2-7.7-36.1-13.1
	c-7.2-6.8-17.1-20.4-17.1-44.1c0-33.9,20.5-57.2,55.1-57.2c6.2,0,26.7,0.5,40.1,16.2c4.2,5.1,7.5,10.9,9.6,17.1l-14.7,2.9
	c-1.2-3.6-2.8-7-4.9-10.2c-3.9-5.4-13.1-14.5-30.2-14.5c-5.4,0-10.8,1.1-15.9,3.1c-22.8,9.7-23,35.8-23,41.8
	c0,26.2,12.5,38.6,23.2,43.1c5.1,1.9,10.5,2.9,15.9,2.8c3.8,0.1,7.5-0.4,11.1-1.4c8.8-2.6,16.2-8.6,20.5-16.7
	c1.7-3.2,3.1-6.8,4.5-13.9l15.7,1.9C1051.4,335.5,1050.6,338.4,1049.4,341.2L1049.4,341.2z"/>
<path class="st1" d="M1225.7,372.1l-29.8-46.3h-28.1v46.3h-14.2v-109h40.6c3.4,0,6.9-0.2,10.3,0c15.1,0.6,22.2,5.4,26.9,11
	c2.9,3.6,6.7,10,6.7,20.8c0,4.5-0.6,19.3-14.5,26.4c-2.6,1.4-5.2,2.5-11.1,3.6l30.6,47.2L1225.7,372.1z M1215,278.2
	c-5.7-3.4-12.5-3.1-19-3.1h-28.2v38.4h29c8.2,0,17.9,0.2,23.5-7.4c2.3-3.3,3.5-7.2,3.4-11.3C1223.6,291.8,1223.3,283.3,1215,278.2z"
	/>
<path class="st1" d="M1413.1,372.1l-11.9-33.3h-41.5l-12.2,33.3h-15.4l41.5-109h15.1l39.7,109L1413.1,372.1z M1381,281l-16.7,45.5
	h32.7L1381,281z"/>
<path class="st1" d="M1542.9,276.1v32.1h51.6v12.6h-51.6v51.2h-14.5v-109h69.9v13L1542.9,276.1z"/>
<path class="st1" d="M1735,275.8v96.3h-14.5v-96.3h-32.7v-12.7h79.8v12.7H1735z"/>
<path class="st1" d="M331.1,325.1c0-1.6-0.4-1.9-1.1-2.2c0.9-0.3,1.4-1.2,1.4-2.1c0-1.4-1.1-2.5-2.4-2.5c-0.1,0-0.2,0-0.3,0h-4.5
	v8.8h1.8v-3.4h1.9c1.4,0,1.4,0.5,1.4,1.7c0,0.6,0,1.2,0.2,1.8h2v-0.2C331.1,326.7,331.1,326.3,331.1,325.1L331.1,325.1z
	 M328.1,322.1H326v-2.4h2.3c1.1,0,1.3,0.7,1.3,1.1C329.6,321.8,329.1,322.1,328.1,322.1L328.1,322.1z"/>
<path class="st1" d="M327.4,313.6c-5.1,0-9.2,4.1-9.1,9.2c0,5.1,4.1,9.2,9.2,9.1c5.1,0,9.1-4.1,9.1-9.2
	C336.6,317.7,332.4,313.6,327.4,313.6C327.4,313.6,327.4,313.6,327.4,313.6z M327.4,330.4c-4.2,0-7.6-3.4-7.6-7.6
	c0-4.2,3.4-7.6,7.6-7.6s7.6,3.4,7.6,7.6c0,0,0,0,0,0C335,327,331.6,330.4,327.4,330.4z"/>
<path class="st1" d="M376,274.5c-0.6-0.6-1.1-1.1-1.5-1.6c-4.3-4.7-13.8-12.1-19.5-16.6l-1.3-1c-1.9-1.5-4.6-3.6-7.4-5.8
	c-6.1-4.8-13.1-10.2-17.1-13.6c-0.6-0.5-1.5-1.3-2.4-2.1V44.2l-0.2-3c-1.5-11.8-6.8-20.8-16.5-28.3c-6.2-4.3-13.3-6.8-20.8-7.3
	H168.8c-2.1,0.1-4.3,0.2-6.4,0.3C148.2,7.2,134.2,10.6,121,16c-2,0.9-4,1.8-5.9,2.6c-9.2,4.5-17.9,10.1-25.8,16.7
	C75.1,24.3,58.2,11.4,52,6.8l-0.2-0.2c-5.5-4.4-11.5-6.2-17.3-5.3C33,1.6,29.6,2.8,24.6,5c-2.3,1-5.4,2.6-7.3,3.6
	c-6,2.8-11.5,6.6-16.3,11.2c-1.4,1.7-1.5,2.2,0.3,3.6c3,1.8,6,3.7,8.8,5.9c11.4,10.9,22.3,22.6,33.3,33.8c0.1,0.1,0.2,0.3,0.3,0.4
	l12.8,13.1L56,77.9c-3.3,9.3-5.6,18.9-7,28.6c-0.6,5.1-1,10.2-1.4,15.3c-1.2,32.6-0.8,65.3-0.8,98c-1.6-0.8-6.3-3-9.3-2.4
	c-3.3,0.7-10.2,7.6-12.3,9.7l-1.3,1.4l0.2,0.2c-1.2,1.2-1.5,1.9-1.4,2.7s0.9,1.1,2.8,2.6c3,2.3,11.4,10.4,21.2,19.3v1.3
	c0,7.7,0.1,55.3,0.1,79.4c0.1,1.3,0.3,2.4,0.4,3.7c1.2,6.7,4,13.1,8.2,18.5c0.4,0.4,0.8,0.9,1.2,1.3c7.5,8.5,16.7,12.7,28.6,13.7
	c130.2,0,130.2,0,133.2-0.1c6.2-0.5,12.5-1.3,18.6-2.5c14.9-3.4,27.5-9.2,40.2-17.4l5.5-4c7.7-6.3,14.6-13.4,20.8-21.2
	c2.9-4,2.9-4,5.7-8.3c4.4-7.3,8.1-15,11.1-23l0.4-1.4c0.1,0.1,0.3,0.2,0.4,0.2c13.1,8.8,26.5,17.3,39.4,26.5
	c2.6,2.4,5.1,4.9,7.4,7.5c1.7,1.5,2.1,1.3,3.6-0.4c5.3-7.7,8.7-16.9,10.8-25.8c0.8-3,2-8.4,2-11.2
	C384.3,282.7,379.3,277.8,376,274.5z M313.6,22.2c0.3,0.3,0.6,0.5,0.9,0.9c5.1,6.1,6.8,11.9,7.7,19.7v6.3
	c-2.1,58.4-4.3,116.8-6.5,175.1c-5.2-4.5-11.9-9.9-18.9-15.6c-18.6-15.2-41.8-34.2-53.2-47c-0.4-0.4-0.7-0.9-0.8-1.5
	c1.2-2.1,5.4-7.8,7.1-9.9c0.1-0.1,9.2-12.4,13.4-18.6l0.8-1.1c0.2-0.3,0.4-0.7,0.7-1c0.7-1.1,1.5-2.2,2.3-3.4l0.6-1
	c1.8-2.8,3.8-6,6-9.7c3.5-5.8,6.5-11.8,9.2-18c0.5-1.1,0.9-2,1.3-3c3.1-6.8,6.3-15.2,8.5-21c1.5-4,4.2-12.3,5.2-16.2
	c0.9-3.3,1.5-7.8,1.1-10.3c0.2-1.8,0.3-3.8,0.6-5.6c0.4-2,1.2-3.8,2.5-5.4C305.8,31.3,309.8,26.6,313.6,22.2L313.6,22.2z
	 M307.4,16.8c0.1,0.1,1.4,0.8,1.3,0.9c-3.9,7-8.8,14-15.9,18.8c-10.5,6.5-22.1,10.9-33.3,16c-8.3,4.2-16.3,8.6-24.3,13.4
	c-11.1,7-21.9,14.7-32.1,23c-7.3,6.3-14.2,12.9-21,19.8l-16.6-13.2c8.7-7.4,15.8-13.3,25.2-20c14.2-9.5,29.1-18,44.5-25.5
	c4-1.8,7.9-3.6,11.7-5.3c9.6-4,19.3-7.7,28.8-12c10.2-5.4,20.6-12.1,29.2-17C305.6,15.4,306.4,16.2,307.4,16.8L307.4,16.8z
	 M295.8,11.4c0.8,0,1.7,0.2,2.4,0.6c1.7,0.7,2.8,0.9,2.1,1.4c-6,4-11.5,7.9-18.2,10.9c-11.2,5.1-21,10.3-33.2,13.6
	c-19,5.8-37.5,13.4-55.1,22.7c-3.1,1.8-6.3,3.6-9.4,5.4c-10.2,6.3-19.7,13.7-28.4,22l-15.6-12.4l-3-2.4l7.8-6.3
	c7.5-5.3,15-10.1,23-14.7c13.9-7.4,28.3-13.6,43.2-18.7c9.3-3,18.5-5.7,28-8c11.6-2.5,26.8-2.8,38.1-6.8
	C283.8,16,289.6,13.4,295.8,11.4L295.8,11.4z M128.4,31.7c10.9-5.2,22.2-9.7,33.8-13.4c35.6-10.3,120.3-8.8,126-8.9
	c4.2-0.1-14.4,6.1-18.4,6.6c-17.1,1.5-34,3.6-50.8,6.6c-13.2,2.7-26.2,6.3-38.9,10.7c-20.6,7.9-37.1,16.8-54,30.4
	c-8-6.4-13.7-10.9-14.4-11.5l-7.3-5.6C112,41.2,120,36.1,128.4,31.7L128.4,31.7z M100.4,121.6l16.6,17
	c-7.9,20.9-18.3,40.4-25.5,61.4c-5,13.1-10.5,25.7-16.7,38.4l-14.3-9.6c-0.2-0.1-3.2-2.2-6.4-4.4c5.5-11.7,11-23.5,16.6-35.2
	c5.3-11.5,10.5-22.9,15.7-34.4c2.8-6.8,8.5-21.1,11.4-28C98.7,124.9,99.7,123,100.4,121.6L100.4,121.6z M101.1,203.3
	c7.6-17.1,16.9-37.7,25.6-54.7l3.3,3.4c1.8,1.9,7.1,7.7,9.1,10.2l0.8,1.1c0.6,0.9,1.1,1.8,1.5,2.8c0.3,1,0.2,2.1-0.3,3.1
	c-9.7,24.8-19.7,49.5-32.7,73c-2.8,4.8-2.9,4.9-8.2,13.6c-1.2-0.8-2.5-1.7-3.6-2.4c-6.3-4.5-13.5-9.3-13.6-9.4l-3.4-2.3
	C87.5,229.1,94.9,216.6,101.1,203.3L101.1,203.3z M52.4,194.1c0.3-32.1,2.3-66.8,14.4-97.5c0.5-1.3,1.6-4.3,2.7-6.7l20.1,20.6
	c-6.1,16.2-11.6,32.6-16.1,49c-4.9,17.3-16,47.5-20.4,56.1C52.8,216,52.3,207.5,52.4,194.1L52.4,194.1z M64.5,269.5
	c7,6.5,13.1,12.1,16.2,15.1c-4.1,6.7-9.7,15.4-15.4,23.8c-2.8,4.2-5.6,8.2-8,11.8c-2.1,3-4.1,5.9-5.9,8.4c0-1,0.6-24.6,0.8-37.6
	C54.3,287.5,60.3,276.5,64.5,269.5L64.5,269.5z M52.4,282.4c-0.1-6.9,0.4-13.9,0.6-20.9v-2.7l8.1,7.4L52.4,282.4z M304.3,284.1
	c-3.6,7.7-7.8,15.2-12.4,22.4c-7.2,10-15.6,19.1-25,27c-2.3,1.8-4.6,3.6-7,5.3c-11.8,8.2-24.8,14.5-38.5,18.7
	c-10.7,3-21.6,4.8-32.7,5.3c-33.2,1.3-66.5,2.5-99.7,3.7h-4.3c-6.9-0.5-13.5-2.9-19.1-7c-3.5-2.7-6.5-6-8.9-9.8
	c-2.7-4.5-4.5-9.6-5-14.8c1.7-1.6,13.7-12.8,40.1-41.6c33.2,25.6,40.9,31.5,56.5,43.6c2,1.5,8.9,7.5,10.1,7.7
	c2.5,0.3,3.5-2.5,4.2-3.6c0.8-1.4,1.6-2.6,2.3-3.8c0.5-0.6,1-1.3,1.4-1.9c1-1.5,1.8-3,2.6-4.6c0.3-0.7,0.6-1.4,0.9-2
	c1.6-4.1,1.9-7.8-8-17.7c-0.8-0.8-19-18.4-19.8-19.1l-13.8-13c-3.2-3.1-7.1-6.7-9.1-8.6c3-3.1,10.5-10.9,14.4-14.4
	c6.6-6,11.6-10,16-13.3s13.4-10,19-14c0.7-0.4,1.3-0.8,2-1.2c6.6-3.8,13.3-8.3,20.6-10.7c7.7-1.9,12-1,18.9,2.8
	c86.8,57.8,86.8,57.8,94.7,63.2L304.3,284.1z M378.8,301.4c-0.7,2.4-1.6,4.8-2.6,7.1c-1.3,2.6-2.8,5-4.6,7.3
	c-0.6,0.6-1.5,0.9-2.4,0.8c-5.6-2.5-15.4-10.1-22.6-15.6c-2.2-1.7-4.1-3.2-5.6-4.3c-5-3.6-12-8.7-18.7-13.5c-4.8-3.5-9.4-6.8-13-9.4
	c-8.3-6-29.9-21.6-38.9-27.9c-10.2-7.1-37.6-27.3-37.9-27.5L203.3,198l-1,0.9c-0.3,0.2-0.6,0.6-1,0.9c-1.7,1.3-4.1,3.2-6.4,5
	c-2,1.3-4,2.8-5.8,4.4c-2.3,2-4.7,3.9-7.3,5.5c-1.9,1.2-4.6,3.2-7.1,5.2c-1.3,1-2.6,2-3.8,2.8l-2.2,1.6c-1.2,0.9-2.7,1.9-4.4,3.1
	l-5.3,3.7c-3.5,2.5-6.8,5.1-10.1,7.7l-1.4,1c-4.5,3.4-9.5,7.4-16.2,13.5c-4.9,4.5-15.3,15.4-15.8,15.8l-1.2,1.3l1.3,1.2
	c0,0,5.8,5.4,10.4,9.8c3.2,3,13.8,13,13.8,13c6.6,6.3,19.2,18.5,19.8,19.1c9.1,9.1,8.2,11.4,7.2,13.9c-0.2,0.5-0.5,1.2-0.8,1.8
	c-0.7,1.4-1.4,2.7-2.3,4c-0.6,0.9-1.3,1.9-1.9,2.5l-0.4,0.4l-11.8-9.7c-0.2-0.2-23.7-19.6-29.6-24.6l-1.6-1.4
	c-8.8-7.6-18-15.6-20.3-16.7H98c15.5-18.7,15.5-18.7,21.2-25.7c8.5-11,16.9-22,25.1-33.2c0.2-0.6,0.6-1,0.1-1.4
	c-0.7,0-0.7,0.1-1.2,0.5c-0.7,0.7-0.5,0.9-66.1,80.4c-6.4,6.8-11.6,12.3-15.7,16.4c3-4.5,6.5-9.6,10-14.6c3.1-4.1,5.9-7.9,7.8-10.5
	c1.7-2.4,4.4-6.5,7-10.2c1-1.4,2-2.6,2.8-3.5c0.4-0.4,0.6-1,0.7-1.5l1.2-1.7c-1.2-1-1.8-1.7-2.4-2.1c-9.8-8.3-20.6-17.5-31.5-26.6
	c-8.9-7.5-18.7-15.1-27-22.1c3.5-3.4,7.3-6.6,8.6-6.9c0.2,0,0.4,0,0.5,0c2,0,5.1,1.4,6.8,2.3c3.3,1.9,12.8,8.5,12.9,8.6L81.3,247
	c0.1,0.1,7.2,4.8,13.6,9.4c3.3,2,8.6,5.8,8.6,5.9l1.5,1l1-1.5c0.1-0.2,12.3-18,16.4-24.5c3.2-5.1,10.4-19,12.7-23.5
	c2.9-5.8,8.3-16.8,10.7-21.8c3.7-7.6,13.6-28.5,13.6-28.5l0.6-1.2l-10.8-9.6C15.8,25.4,15.8,25.3,14.5,24.1
	c-1.7-1.8-3.5-4.2-2.2-6.3c2.4-2.8,5.2-5.2,8.4-7c1.6-0.9,3.6-1.9,5.2-2.6c6.7-2.9,8.6-3.3,9-3.4c4.9-0.8,9.9,0.8,14.6,4.6L50,9.7
	c10.8,8,53.8,41.1,59.5,45.5c1.1,0.8,14,11.1,28.9,23c26.6,21.2,47.1,37.5,48,38.2c3.1,2.3,5.4,2.8,7.1,1.9c3.9-2.2,8.6-7.7,8.7-7.8
	s10.2-10.6,13.3-13.4l2.6-2.4c3-2.8,6.7-6.3,9.1-8.3c3.7-3.1,10.3-8.4,13-10.5c2.5-1.9,7.1-5.1,11.2-7.9c2-1.4,3.9-2.7,5.2-3.6
	c3.6-2.5,11.1-7.3,14.9-9.4c3.4-1.8,9-4.7,12.8-6.7c2.7-1.4,6.7-2.9,8.7-2.7h0.5c1.4,0.1,1.8,0.1,2.1,1.5s-0.2,5.5-1.1,9
	c-1,3.7-3.7,12-5.1,15.9c-2.1,5.7-5.2,14-8.4,20.7c-0.4,1-0.9,2-1.4,3s-1,2.2-1.5,3.4c-2.8,5.6-5.8,11.2-8.9,16.6
	c-3.3,5.5-6.2,9.9-8.8,13.7c-4.1,6.1-13.2,18.3-13.3,18.4c-0.6,0.8-6.2,8.1-7.5,10.7c-1.1,2.2,1.4,5,1.5,5.2
	c11.6,13,34.9,32.1,53.6,47.4c7.6,6.2,14.8,12.1,20.1,16.7c1.2,1,3,2.6,5,4.4c2.7,2.4,5.6,5,7.2,6.3c4.1,3.4,11.1,8.9,17.2,13.6
	c2.9,2.2,5.5,4.2,7.4,5.8l1.3,1.1c5.6,4.4,14.9,11.8,19,16.2c0.5,0.5,1,1.1,1.6,1.7c3,3,7.2,7.2,7.3,13.2
	C380.6,293.9,379.9,297.6,378.8,301.4L378.8,301.4z"/>
<path class="st1" d="M241.4,142c-4-0.5-4.3-0.4-4.9-4.3c-2.3-9-12.9-17.9-22.6-19c-4.7,0-4.6-1.1-5.3-5.2c-1.1-6.8,1-8,6.1-12.8
	c9.1-7.7,18.5-9.2,29.3-3.4c1,0.7,2,1.3,2.9,1.9c10,8.1,14.1,18.2,9.4,30.2c-1.7,3.9-4,7.5-6.8,10.7
	C247.4,141.8,244.1,142,241.4,142L241.4,142z M184.4,141.7c-3.9-1.9-1-5.5,0.4-7.4c5.4-7.6,12-14.5,18.1-21.5
	c0.2-0.2,0.5-0.4,0.5-0.2c-0.1,0.9-0.4,1.8-0.6,2.7c-0.7,3.6,1.9,5.8-0.7,9c-4.6,5.8-9.4,11.3-14.5,16.6c-0.5,0.7-1.3,1.1-2.1,1.1
	C185.1,141.9,184.8,141.8,184.4,141.7L184.4,141.7z M193.4,199.3c-1.1,0-0.5-1.3,0.1-2.1c5.1-6.9,10.9-13.2,17.4-18.9
	c2.7-2.4,4.8-0.9,7.8-2c0.3-0.1,0.7-0.5,1.1-0.4c-0.1,0.5-0.3,0.9-0.7,1.1c-7.7,7.6-13.5,14.4-21.5,20.3c-1.6,1-2.6,1.9-4.5,2
	L193.4,199.3z M163.3,212c-4.6-1.3-9.8-5.6-10.5-10.4c-0.2-5.1,5.1-15.8,10.1-17.8c4.6-1.8,11.9,4.6,15.2,8.1
	c4.1,4.5,4.4,6.8,0.5,11.3c-3.4,3.9-8.5,9.6-14.3,9C164.1,212.2,163.3,212,163.3,212L163.3,212z"/>
<path class="st1" d="M160.8,172.1c-0.2-1.9,0.4-3.1,1.2-4.8c4.5-8.9,10.2-15.8,16.3-24.7c0.2-0.4,0.6-0.7,1-0.9
	c0.1,0.4-0.2,0.9-0.2,1.2c-0.6,3.2,1.2,5-0.6,8c-4.4,7.4-9.6,14.2-15.6,20.4c-0.7,0.7-1.9,1.6-2.1,0.5L160.8,172.1z"/>
<path class="st1" d="M218.8,169.3c-0.2-0.8,0.1-1.7,0.7-2.3c4.4-6.1,8.7-11.6,13.7-17.3c2.7-3.1,5.3-0.9,8.8-2.3
	c0.8-0.5,1.6-0.8,2.5-1.1c0.2,0,0.1,0.3-0.1,0.5c-5.8,7.3-11.4,15-17.9,21.7c-1.6,1.7-4.7,5.3-7.2,1.7
	C219.1,169.9,219,169.6,218.8,169.3L218.8,169.3z"/>
</svg>
