<?xml version="1.0" encoding="utf-8"?>
<!-- Generator: Adobe Illustrator 24.0.1, SVG Export Plug-In . SVG Version: 6.00 Build 0)  -->
<svg version="1.1" id="Layer_1" xmlns="http://www.w3.org/2000/svg" xmlns:xlink="http://www.w3.org/1999/xlink" x="0px" y="0px"
	 viewBox="0 0 600 150" style="enable-background:new 0 0 600 150;" xml:space="preserve">
<style type="text/css">
	.st0{fill:#FFF;}
</style>
<g>
	<path class="st0" d="M34.33,89.92c6.01,12.76,21.17,16.67,35.59,16.67c6.46,0,26.73-1.05,26.73-13.96c0-7.66-7.36-9.46-13.06-10.51
		c-4.35-0.9-26.13-4.21-31.08-5.11c-9.76-1.8-34.39-6.46-34.39-30.48c0-5.26,1.5-10.66,4.2-15.02c8.86-14.27,28.38-18.02,45.2-18.02
		c15.47,0,27.33,2.25,38.29,8.26c10.81,5.86,15.47,13.67,17.57,17.12l-25.23,6.31c-0.9-1.65-3-5.56-9.31-8.71
		c-7.06-3.45-16.22-4.05-21.32-4.05c-11.71,0-23.73,2.25-23.73,12.31c0,6.91,6.16,8.71,14.12,10.51c4.35,0.9,25.98,4.5,30.93,5.56
		c12.31,2.25,33.19,6.76,33.19,30.03c0,34.09-40.54,35.29-53.91,35.29c-17.42,0-44.3-3-57.96-29.88L34.33,89.92z"/>
	<path class="st0" d="M139.44,16.79h72.98c12.01,0,22.97,1.05,31.83,11.26c5.41,6.31,6.91,14.27,6.91,20.42
		c0,8.11-2.7,17.72-10.21,23.43c-5.71,4.35-13.06,5.86-17.27,6.61l32.13,44.3h-31.23L196.2,80.16h-30.18v42.65h-26.58V16.79z
		 M166.02,61.39h42.35c5.71,0,15.92-0.75,15.92-12.61c0-2.1-0.3-5.71-2.1-8.26c-1.95-2.55-4.5-5.11-15.02-5.11h-41.14V61.39z"/>
	<path class="st0" d="M364.07,122.8h-89.65v-9.76c30.93-14.12,48.8-22.82,60.97-32.13c4.05-3.15,16.67-12.91,16.67-28.38
		c0-13.36-10.66-26.13-32.29-26.13c-8.11,0-16.97,2.1-23.27,6.46c-10.66,7.36-11.41,17.42-11.86,24.48l-10.21-1.5
		c0.6-5.56,2.25-18.92,14.12-28.68c4.96-4.05,14.87-9.76,31.68-9.76c12.76,0,22.07,3.3,29.73,9.31c4.8,3.75,12.76,11.56,12.76,25.68
		c0,19.37-14.72,30.48-21.92,35.74c-8.41,6.01-19.52,12.16-28.98,16.67c-7.06,3.3-14.27,6.16-21.47,9.01h73.73V122.8z"/>
	<path class="st0" d="M473.54,122.8h-89.65v-9.76c30.93-14.12,48.8-22.82,60.97-32.13c4.05-3.15,16.67-12.91,16.67-28.38
		c0-13.36-10.66-26.13-32.29-26.13c-8.11,0-16.97,2.1-23.28,6.46c-10.66,7.36-11.41,17.42-11.86,24.48l-10.21-1.5
		c0.6-5.56,2.25-18.92,14.12-28.68c4.96-4.05,14.87-9.76,31.68-9.76c12.76,0,22.07,3.3,29.73,9.31
		c4.81,3.75,12.76,11.56,12.76,25.68c0,19.37-14.72,30.48-21.92,35.74c-8.41,6.01-19.52,12.16-28.98,16.67
		c-7.06,3.3-14.27,6.16-21.47,9.01h73.73V122.8z"/>
</g>
</svg>
